<svg width="121" height="101" viewBox="0 0 121 101" fill="none" xmlns="http://www.w3.org/2000/svg">
<g clip-path="url(#clip0_13_46)">
<path d="M107.556 36.4722H80.6667C78.8838 36.4722 77.174 37.0634 75.9134 38.1157C74.6527 39.168 73.9445 40.5952 73.9445 42.0833V84.1667C73.9445 85.6548 74.6527 87.082 75.9134 88.1343C77.174 89.1866 78.8838 89.7778 80.6667 89.7778H107.556C109.338 89.7778 111.048 89.1866 112.309 88.1343C113.57 87.082 114.278 85.6548 114.278 84.1667V42.0833C114.278 40.5952 113.57 39.168 112.309 38.1157C111.048 37.0634 109.338 36.4722 107.556 36.4722ZM107.556 42.0833V72.9445H80.6667V42.0833H107.556ZM80.6667 84.1667V77.4333H107.556V84.1667H80.6667Z" fill="#5F2782"/>
<path d="M67.2222 61.7222H13.4445V16.8333H94.1111V30.8611H100.833V16.8333C100.833 15.3452 100.125 13.918 98.8644 12.8657C97.6038 11.8134 95.894 11.2222 94.1111 11.2222H13.4445C11.6616 11.2222 9.95178 11.8134 8.69112 12.8657C7.43046 13.918 6.72223 15.3452 6.72223 16.8333V61.7222C6.72223 63.2104 7.43046 64.6376 8.69112 65.6899C9.95178 66.7422 11.6616 67.3333 13.4445 67.3333H67.2222V61.7222Z" fill="#5F2782"/>
<path d="M67.2223 72.9444H30.25C29.3586 72.9444 28.5037 73.24 27.8734 73.7662C27.243 74.2923 26.8889 75.0059 26.8889 75.75C26.8889 76.4941 27.243 77.2077 27.8734 77.7338C28.5037 78.26 29.3586 78.5556 30.25 78.5556H67.2223V72.9444Z" fill="#5F2782"/>
</g>
<defs>
<clipPath id="clip0_13_46">
<rect width="121" height="101" fill="white"/>
</clipPath>
</defs>
</svg>
