<svg width="38" height="35" viewBox="0 0 38 35" fill="none" xmlns="http://www.w3.org/2000/svg">
<path d="M6.05505 20.662C6.05505 20.662 6.76102 23.1656 11.1821 22.5252L11.9332 20.8496L10.6608 19.5765L7.1428 18.5073L6.05505 20.662Z" fill="#34484C"/>
<path d="M20.1399 15.9671C20.1399 16.8536 19.6448 17.0882 18.3955 17.5738L7.72344 21.7246C7.49422 21.7248 7.26721 21.6833 7.05542 21.6025C6.84362 21.5217 6.6512 21.4033 6.48917 21.2539C6.32714 21.1046 6.19867 20.9273 6.11113 20.7322C6.02359 20.537 5.97869 20.3279 5.97901 20.1168V6.30437C5.97901 5.41734 6.54544 5.12313 7.72344 4.6993L18.3961 0.546875C18.8588 0.546875 19.3026 0.716136 19.6298 1.01744C19.9571 1.31874 20.141 1.72742 20.1411 2.15359V15.9677" fill="#AD7029"/>
<path d="M6.94751 21.5573C6.94751 21.5573 10.9494 22.6128 11.1833 22.5242C11.4161 22.4312 11.0325 20.9251 11.0325 20.9251L9.58673 19.4906L8.23892 19.4327L8.00201 19.7422L6.94751 21.5573Z" fill="#34484C"/>
<path d="M18.1438 1.5072L6.30322 6.08728L6.85838 9.02345L8.62003 9.18587L14.5035 8.31361L18.1604 6.54884L20.8513 3.15275C20.2647 2.18205 19.3996 1.58103 18.1438 1.5072Z" fill="#F4F5F5"/>
<path d="M9.43884 7.10391C9.43884 6.84578 9.49109 6.63961 9.58609 6.46571C8.37365 6.36071 7.2289 6.0386 6.39527 5.34625C6.1174 5.58086 5.98083 5.87125 5.98083 6.30656V20.1195C5.98099 20.5456 6.16483 20.9542 6.49194 21.2555C6.81905 21.5568 7.26267 21.7261 7.72527 21.7263L9.44715 21.0569C9.44359 21.0088 9.43824 20.965 9.43824 20.9169V7.10391" fill="#34484C"/>
<path d="M23.908 17.3305C23.908 18.2191 23.4122 18.4516 22.1624 18.9383L11.1821 22.5241C10.7193 22.5241 10.2754 22.3548 9.94802 22.0534C9.62066 21.752 9.43668 21.3432 9.43652 20.9169V7.1039C9.43652 6.21796 10.0036 5.92265 11.1821 5.49608L22.1624 1.91187C22.6249 1.91158 23.0687 2.0805 23.396 2.3815C23.7234 2.68249 23.9075 3.09091 23.908 3.51694V17.331" fill="#F79420"/>
<path d="M19.3604 6.12666C19.3718 6.1532 19.3774 6.18158 19.3768 6.21014C19.3762 6.2387 19.3695 6.26686 19.3569 6.29298C19.3444 6.3191 19.3263 6.34266 19.3037 6.36227C19.2812 6.38188 19.2546 6.39716 19.2256 6.4072L13.3855 8.48205C13.327 8.50283 13.262 8.5015 13.2047 8.47835C13.1473 8.4552 13.1021 8.41211 13.0791 8.35845C13.0567 8.30469 13.0583 8.24497 13.0834 8.19224C13.1085 8.13952 13.1552 8.09804 13.2133 8.07681L19.0558 6.00197C19.1142 5.98175 19.1788 5.9835 19.2358 6.00683C19.2928 6.03016 19.3375 6.0732 19.3604 6.12666ZM19.3604 7.1165C19.3717 7.14306 19.3771 7.17142 19.3764 7.19993C19.3758 7.22845 19.369 7.25655 19.3564 7.28264C19.3439 7.30872 19.3259 7.33226 19.3034 7.35189C19.281 7.37153 19.2545 7.38688 19.2256 7.39705L13.3855 9.4708C13.3567 9.48121 13.326 9.4863 13.2951 9.48578C13.2642 9.48526 13.2337 9.47914 13.2053 9.46776C13.177 9.45639 13.1514 9.43998 13.1299 9.41948C13.1084 9.39899 13.0916 9.3748 13.0803 9.3483C13.069 9.3218 13.0634 9.2935 13.064 9.26503C13.0646 9.23657 13.0712 9.20848 13.0836 9.18238C13.0959 9.15628 13.1137 9.13267 13.136 9.11291C13.1582 9.09315 13.1845 9.07762 13.2133 9.0672L19.0558 6.99126C19.1143 6.97081 19.1792 6.97257 19.2363 6.99615C19.2934 7.01973 19.338 7.06321 19.3604 7.11705M17.3749 8.84298C17.4224 8.95455 17.3933 9.07103 17.3102 9.10001L13.3213 10.5164C13.2382 10.546 13.1337 10.4781 13.085 10.3666C13.0393 10.255 13.0702 10.1385 13.1521 10.1095L17.1409 8.69423C17.2217 8.6658 17.3292 8.73087 17.3749 8.84353" fill="#905A24"/>
<path d="M2.45935 28.5387C2.45935 28.5387 3.22054 31.2408 7.98954 30.5506L8.80119 28.7416L7.42963 27.3684L3.63023 26.2145L2.45935 28.5387Z" fill="#34484C"/>
<path d="M17.6569 23.4817C17.6569 24.4382 17.1225 24.6897 15.7735 25.2153L4.25715 29.6931C4.00978 29.6932 3.76481 29.6485 3.53623 29.5613C3.30766 29.4742 3.09998 29.3465 2.92506 29.1853C2.75014 29.0242 2.61142 28.8329 2.51683 28.6224C2.42223 28.4119 2.37362 28.1863 2.37378 27.9584V13.0566C2.37378 12.0958 2.98415 11.778 4.25715 11.3214L15.7735 6.84302C16.0208 6.84287 16.2656 6.88759 16.494 6.97461C16.7225 7.06164 16.9301 7.18926 17.105 7.3502C17.2799 7.51113 17.4186 7.70223 17.5133 7.91256C17.608 8.1229 17.6568 8.34836 17.6569 8.57607V23.4817Z" fill="#1EA0CD"/>
<path d="M3.42183 29.5083C3.42183 29.5083 7.73958 30.6496 7.98836 30.5523C8.24129 30.4527 7.82804 28.8274 7.82804 28.8274L6.26648 27.2776L4.81417 27.2174L4.55886 27.5505L3.42004 29.5083" fill="#34484C"/>
<path d="M15.5051 7.8728L2.7312 12.8187L3.32911 15.9851L5.22911 16.1601L11.5775 15.2179L15.5235 13.3142L18.4276 9.6496C17.7935 8.60179 16.8601 7.9521 15.5063 7.8728" fill="#F4F5F5"/>
<path d="M6.11264 13.9141C6.11264 13.638 6.1637 13.4143 6.2676 13.2262C4.96135 13.1146 3.72754 12.7668 2.82385 12.0181C2.52698 12.2719 2.37854 12.5869 2.37854 13.0572V27.9584C2.37823 28.1862 2.42669 28.4118 2.52116 28.6224C2.61562 28.8329 2.75423 29.0242 2.92905 29.1853C3.10388 29.3464 3.31148 29.4742 3.53999 29.5614C3.76849 29.6485 4.01341 29.6933 4.26073 29.6931L6.11917 28.9713C6.11437 28.9209 6.11179 28.8703 6.11145 28.8198V13.9141H6.11264Z" fill="#34484C"/>
<path d="M21.7223 24.9468C21.7223 25.9044 21.1891 26.1554 19.839 26.6804L7.99008 30.5512C7.49078 30.5507 7.01207 30.3678 6.65907 30.0426C6.30606 29.7173 6.10761 29.2764 6.1073 28.8165V13.9114C6.1073 12.9544 6.72005 12.6361 7.99008 12.1778L19.839 8.3092C20.0863 8.30913 20.3312 8.35395 20.5598 8.4411C20.7883 8.52825 20.996 8.65603 21.1709 8.81712C21.3458 8.97822 21.4845 9.16948 21.5791 9.37997C21.6737 9.59046 21.7224 9.81607 21.7223 10.0439V24.9468Z" fill="#57C6E9"/>
<path d="M16.8162 12.8587C16.8283 12.8874 16.8341 12.9181 16.8333 12.9489C16.8325 12.9798 16.8251 13.0101 16.8115 13.0383C16.798 13.0665 16.7785 13.092 16.7542 13.1132C16.73 13.1345 16.7014 13.1511 16.6702 13.1622L10.3705 15.4C10.3075 15.4225 10.2374 15.4212 10.1754 15.3964C10.1134 15.3717 10.0644 15.3254 10.0392 15.2677C10.015 15.2091 10.0168 15.1441 10.0444 15.0869C10.072 15.0296 10.1231 14.9847 10.1864 14.962L16.4861 12.7252C16.5173 12.7139 16.5506 12.7084 16.5841 12.709C16.6176 12.7096 16.6506 12.7163 16.6813 12.7287C16.712 12.7411 16.7397 12.759 16.7629 12.7813C16.786 12.8036 16.8042 12.8299 16.8162 12.8587ZM16.8162 13.9295C16.8403 13.9874 16.8384 14.0518 16.811 14.1084C16.7836 14.1651 16.733 14.2095 16.6702 14.2319L10.3705 16.4692C10.3393 16.4805 10.3059 16.486 10.2724 16.4855C10.2388 16.485 10.2057 16.4783 10.1749 16.466C10.1442 16.4536 10.1163 16.4358 10.093 16.4136C10.0697 16.3913 10.0514 16.365 10.0392 16.3363C10.015 16.278 10.017 16.2133 10.0446 16.1564C10.0722 16.0995 10.1232 16.055 10.1864 16.0327L16.4861 13.7949C16.5174 13.7837 16.5507 13.7782 16.5843 13.7789C16.6179 13.7795 16.6509 13.7863 16.6816 13.7988C16.7123 13.8113 16.74 13.8293 16.7631 13.8517C16.7862 13.8742 16.8043 13.9006 16.8162 13.9295ZM14.674 15.7905C14.7239 15.9119 14.693 16.0355 14.6033 16.0661L10.2987 17.5946C10.2096 17.6274 10.0974 17.5552 10.0457 17.4349C9.99525 17.3124 10.0255 17.1888 10.1152 17.1577L14.4193 15.6292C14.5101 15.5991 14.6241 15.6707 14.6746 15.7905" fill="#198BA9"/>
<path d="M12.9817 32.1601C12.9817 32.1601 13.807 35.0777 18.959 34.3312L19.8365 32.3778L18.3539 30.8952L14.2499 29.6478L12.9823 32.1601" fill="#34484C"/>
<path d="M29.3995 26.6902C29.3995 27.7238 28.8236 27.9967 27.3654 28.5622L14.9263 33.4004C14.3871 33.4004 13.8699 33.2031 13.4885 32.8519C13.1072 32.5008 12.8929 32.0245 12.8927 31.5279V15.4273C12.8927 14.3926 13.5524 14.0481 14.9263 13.5543L27.3654 8.71606C27.9047 8.71621 28.4219 8.91358 28.8034 9.26479C29.1848 9.61601 29.3992 10.0923 29.3995 10.5891V26.6902Z" fill="#78111F"/>
<path d="M14.0226 33.2057C14.0226 33.2057 18.6877 34.4367 18.959 34.3306C19.2304 34.2245 18.7851 32.4696 18.7851 32.4696L17.0988 30.795L15.5283 30.7278L15.2522 31.0898L14.0232 33.2062" fill="#34484C"/>
<path d="M27.0732 9.83282L13.2703 15.1731L13.9186 18.5965L15.973 18.7835L22.8261 17.7674L27.0892 15.709L30.2272 11.7524C29.5396 10.6203 28.5332 9.91814 27.0696 9.83282" fill="#F4F5F5"/>
<path d="M16.9302 16.3565C16.9302 16.0584 16.9878 15.8178 17.0982 15.6127C15.6851 15.4924 14.3527 15.1161 13.379 14.3079C13.0572 14.5818 12.8969 14.922 12.8969 15.429V31.529C12.8969 31.775 12.9496 32.0186 13.0519 32.2459C13.1542 32.4732 13.3041 32.6797 13.4931 32.8536C13.682 33.0276 13.9063 33.1655 14.1531 33.2596C14.4 33.3537 14.6645 33.4021 14.9316 33.402L16.9385 32.6211C16.9334 32.5672 16.9307 32.5132 16.9302 32.4592V16.357" fill="#34484C"/>
<path d="M33.7898 28.2811C33.7898 29.3147 33.2138 29.5859 31.7573 30.1536L18.9567 34.3328C18.4178 34.3331 17.9008 34.1362 17.5194 33.7855C17.1381 33.4348 16.9236 32.9589 16.9231 32.4625V16.3581C16.9231 15.3245 17.5828 14.9816 18.9567 14.4878L31.7579 10.3075C32.2968 10.3076 32.8135 10.5049 33.1945 10.8558C33.5755 11.2067 33.7896 11.6826 33.7898 12.1789V28.2811Z" fill="#BE202E"/>
<path d="M28.4929 15.2179C28.5061 15.249 28.5125 15.2823 28.5118 15.3157C28.511 15.3491 28.5031 15.382 28.4885 15.4126C28.4739 15.4432 28.4528 15.4709 28.4266 15.4939C28.4003 15.517 28.3694 15.5351 28.3355 15.5471L21.5276 17.9632C21.4941 17.9754 21.4583 17.9814 21.4223 17.9808C21.3863 17.9803 21.3508 17.9731 21.3178 17.9599C21.2848 17.9466 21.255 17.9275 21.2301 17.9035C21.2051 17.8796 21.1856 17.8514 21.1725 17.8205C21.1592 17.7896 21.1528 17.7565 21.1535 17.7233C21.1542 17.69 21.162 17.6572 21.1766 17.6268C21.1912 17.5963 21.2122 17.5689 21.2384 17.546C21.2646 17.5231 21.2955 17.5053 21.3293 17.4935L28.1378 15.0746C28.2055 15.0503 28.281 15.0517 28.3475 15.0786C28.4141 15.1055 28.4664 15.1556 28.4929 15.2179ZM28.4929 16.3735C28.506 16.4044 28.5123 16.4374 28.5114 16.4706C28.5106 16.5038 28.5027 16.5365 28.488 16.5669C28.4734 16.5972 28.4524 16.6246 28.4262 16.6475C28.4 16.6703 28.3692 16.6881 28.3355 16.6999L21.527 19.1177C21.459 19.1417 21.3835 19.14 21.3169 19.1128C21.2504 19.0857 21.1982 19.0353 21.1719 18.9728C21.1455 18.9099 21.1472 18.84 21.1765 18.7783C21.2059 18.7167 21.2606 18.6682 21.3287 18.6435L28.1372 16.2285C28.1709 16.2162 28.2069 16.2102 28.2432 16.2108C28.2794 16.2115 28.3151 16.2187 28.3483 16.2322C28.3815 16.2457 28.4114 16.2652 28.4363 16.2894C28.4612 16.3137 28.4807 16.3422 28.4935 16.3735M26.1802 18.386C26.2348 18.5161 26.2016 18.6506 26.1024 18.684L21.454 20.3361C21.356 20.37 21.2337 20.2924 21.1797 20.1617C21.1244 20.0321 21.1583 19.8964 21.2568 19.862L25.9053 18.212C26.0009 18.1776 26.1232 18.2553 26.1802 18.3865" fill="#78111F"/>
</svg>
