<svg width="121" height="101" viewBox="0 0 121 101" fill="none" xmlns="http://www.w3.org/2000/svg">
<path d="M72.9781 73.0293H47.8706C33.3506 73.0293 21.5909 63.2134 21.5909 51.0934V37.3321H99.22V51.0934C99.2578 63.2134 87.4981 73.0293 72.9781 73.0293Z" fill="#533566"/>
<path d="M64.7728 16.6555L111.207 36.5083C114.08 37.7393 114.08 41.1796 111.207 42.4105L64.7728 62.2633C62.0503 63.4312 58.8741 63.4312 56.1516 62.2633L9.71781 42.4105C6.84406 41.1796 6.84406 37.7393 9.71781 36.5083L56.1516 16.6555C57.4838 16.0799 58.9621 15.7795 60.4622 15.7795C61.9623 15.7795 63.4406 16.0799 64.7728 16.6555Z" fill="#321B41"/>
<path d="M57.2859 38.0265C58.0044 36.7324 59.8572 36.2274 61.3697 36.8587L86.7419 47.7162C87.7628 48.1581 88.3678 49.0103 88.3678 49.9571V69.7784C89.801 70.3607 90.9491 71.3387 91.6175 72.5466C92.2859 73.7545 92.4336 75.1181 92.0356 76.4065V76.4696C91.9978 76.5959 91.96 76.7537 91.8844 76.8799C91.8844 76.9115 91.8466 76.9431 91.8466 76.9746C91.8088 77.1009 91.7331 77.2271 91.6575 77.3534C91.6575 77.3849 91.6197 77.4165 91.6197 77.4165C91.4306 77.7637 91.166 78.1109 90.9013 78.3949C90.8634 78.4581 90.8256 78.4896 90.75 78.5527L92.5272 85.4965C92.7589 86.3908 92.7475 87.3171 92.4939 88.2072C92.2402 89.0974 91.7509 89.9288 91.0617 90.6403C90.3725 91.3518 89.501 91.9254 88.5114 92.3188C87.5217 92.7122 86.439 92.9155 85.3428 92.9137C84.2467 92.9155 83.1639 92.7122 82.1743 92.3188C81.1846 91.9254 80.3132 91.3518 79.624 90.6403C78.9348 89.9288 78.4454 89.0974 78.1918 88.2072C77.9382 87.3171 77.9268 86.3908 78.1584 85.4965L79.9356 78.5527C78.9903 77.5743 78.4231 76.3434 78.4231 74.9862C78.4231 74.1971 78.6122 73.4396 78.9525 72.7768C78.9525 72.7453 78.9903 72.7137 79.0281 72.6821C79.0659 72.5874 79.1416 72.4612 79.2172 72.3665C79.2928 72.2402 79.3684 72.114 79.4819 71.9878C79.5197 71.9562 79.5197 71.9246 79.5575 71.8931C80.2381 71.0093 81.2213 70.2834 82.3556 69.8099V51.5037L58.7228 41.4037C57.2481 40.7724 56.5675 39.2574 57.2859 38.0265Z" fill="#FFB02E"/>
</svg>
