<svg width="38" height="26" viewBox="0 0 38 26" fill="none" xmlns="http://www.w3.org/2000/svg">
<g opacity="0.8">
<path fill-rule="evenodd" clip-rule="evenodd" d="M10.246 14.2075C9.16095 15.4282 8.58197 16.8624 8.58199 18.3295V19.375C8.58199 19.7728 8.37127 20.1543 7.9962 20.4356C7.62113 20.7169 7.11242 20.875 6.58199 20.875C6.05155 20.875 5.54285 20.7169 5.16777 20.4356C4.7927 20.1543 4.58199 19.7728 4.58199 19.375V18.3295C4.58199 16.27 5.39399 14.257 6.91799 12.5425L10.246 14.2075Z" fill="#67215F"/>
<path fill-rule="evenodd" clip-rule="evenodd" d="M14.186 12.625C12.602 12.625 11.124 13.219 10.246 14.2075L6.91798 12.5425C7.71582 11.6452 8.79659 10.9095 10.0644 10.4005C11.3323 9.89161 12.748 9.62522 14.186 9.625H14.582C15.1124 9.625 15.6211 9.78304 15.9962 10.0643C16.3713 10.3456 16.582 10.7272 16.582 11.125C16.582 11.5228 16.3713 11.9044 15.9962 12.1857C15.6211 12.467 15.1124 12.625 14.582 12.625H14.186ZM18.61 14.2075C19.694 15.427 20.274 16.8625 20.274 18.3295V19.375C20.274 19.7728 20.4847 20.1544 20.8598 20.4357C21.2348 20.717 21.7436 20.875 22.274 20.875C22.8044 20.875 23.3131 20.717 23.6882 20.4357C24.0633 20.1544 24.274 19.7728 24.274 19.375V18.3295C24.2741 16.2698 23.4613 14.2563 21.938 12.5425L18.61 14.2075Z" fill="#67215F"/>
<path fill-rule="evenodd" clip-rule="evenodd" d="M14.668 12.625C16.252 12.625 17.73 13.219 18.608 14.2075L21.938 12.5425C21.1401 11.6449 20.059 10.909 18.7908 10.4C17.5225 9.89105 16.1064 9.62484 14.668 9.625H14.274C13.7436 9.625 13.2348 9.78304 12.8598 10.0643C12.4847 10.3456 12.274 10.7272 12.274 11.125C12.274 11.5228 12.4847 11.9044 12.8598 12.1857C13.2348 12.467 13.7436 12.625 14.274 12.625H14.668ZM5.77399 20.125C5.77399 19.9261 5.87934 19.7353 6.06688 19.5947C6.25442 19.454 6.50877 19.375 6.77399 19.375H20.774C21.0392 19.375 21.2936 19.454 21.4811 19.5947C21.6686 19.7353 21.774 19.9261 21.774 20.125C21.774 20.3239 21.6686 20.5147 21.4811 20.6553C21.2936 20.796 21.0392 20.875 20.774 20.875H6.77399C6.50877 20.875 6.25442 20.796 6.06688 20.6553C5.87934 20.5147 5.77399 20.3239 5.77399 20.125Z" fill="#67215F"/>
<path d="M20.774 6.625C20.774 7.91793 20.0892 9.15791 18.8702 10.0721C17.6512 10.9864 15.9979 11.5 14.274 11.5C12.5501 11.5 10.8968 10.9864 9.67779 10.0721C8.45881 9.15791 7.77399 7.91793 7.77399 6.625C7.77399 5.33207 8.45881 4.09209 9.67779 3.17785C10.8968 2.26361 12.5501 1.75 14.274 1.75C15.9979 1.75 17.6512 2.26361 18.8702 3.17785C20.0892 4.09209 20.774 5.33207 20.774 6.625Z" fill="#67215F"/>
<path fill-rule="evenodd" clip-rule="evenodd" d="M14.274 8.5C14.937 8.5 15.5729 8.30246 16.0418 7.95083C16.5106 7.59919 16.774 7.12228 16.774 6.625C16.774 6.12772 16.5106 5.65081 16.0418 5.29917C15.5729 4.94754 14.937 4.75 14.274 4.75C13.6109 4.75 12.9751 4.94754 12.5062 5.29917C12.0374 5.65081 11.774 6.12772 11.774 6.625C11.774 7.12228 12.0374 7.59919 12.5062 7.95083C12.9751 8.30246 13.6109 8.5 14.274 8.5ZM14.274 11.5C15.9979 11.5 17.6512 10.9864 18.8702 10.0721C20.0892 9.15791 20.774 7.91793 20.774 6.625C20.774 5.33207 20.0892 4.09209 18.8702 3.17785C17.6512 2.26361 15.9979 1.75 14.274 1.75C12.5501 1.75 10.8968 2.26361 9.67779 3.17785C8.45881 4.09209 7.77399 5.33207 7.77399 6.625C7.77399 7.91793 8.45881 9.15791 9.67779 10.0721C10.8968 10.9864 12.5501 11.5 14.274 11.5Z" fill="#67215F"/>
<path d="M7.77399 12.625H20.774V20.125H7.77399V12.625Z" fill="#67215F"/>
<path fill-rule="evenodd" clip-rule="evenodd" d="M24.746 19.0825C23.661 20.3032 23.082 21.7374 23.082 23.2045V24.25C23.082 24.6478 22.8713 25.0294 22.4962 25.3107C22.1211 25.592 21.6124 25.75 21.082 25.75C20.5516 25.75 20.0428 25.592 19.6678 25.3107C19.2927 25.0294 19.082 24.6478 19.082 24.25V23.2045C19.082 21.145 19.894 19.132 21.418 17.4175L24.746 19.0825ZM28.686 17.5C27.104 17.5 25.624 18.094 24.746 19.0825L21.418 17.4175C22.2158 16.5202 23.2966 15.7845 24.5644 15.2755C25.8323 14.7666 27.248 14.5002 28.686 14.5H29.082C29.6124 14.5 30.1211 14.658 30.4962 14.9393C30.8713 15.2206 31.082 15.6022 31.082 16C31.082 16.3978 30.8713 16.7794 30.4962 17.0607C30.1211 17.342 29.6124 17.5 29.082 17.5H28.686ZM33.11 19.0825C34.194 20.302 34.774 21.7375 34.774 23.2045V24.25C34.774 24.6478 34.9847 25.0294 35.3598 25.3107C35.7348 25.592 36.2435 25.75 36.774 25.75C37.3044 25.75 37.8131 25.592 38.1882 25.3107C38.5633 25.0294 38.774 24.6478 38.774 24.25V23.2045C38.7741 21.1448 37.9613 19.1313 36.438 17.4175L33.11 19.0825Z" fill="#67215F"/>
<path fill-rule="evenodd" clip-rule="evenodd" d="M29.168 17.5C30.752 17.5 32.232 18.094 33.108 19.0825L36.438 17.4175C35.64 16.52 34.5589 15.7841 33.2907 15.2752C32.0225 14.7662 30.6063 14.5 29.168 14.5H28.774C28.2436 14.5 27.7348 14.658 27.3598 14.9393C26.9847 15.2206 26.774 15.6022 26.774 16C26.774 16.3978 26.9847 16.7794 27.3598 17.0607C27.7348 17.342 28.2436 17.5 28.774 17.5H29.168ZM19.774 25C19.774 24.8011 19.8793 24.6103 20.0669 24.4697C20.2544 24.329 20.5088 24.25 20.774 24.25H36.774C37.0392 24.25 37.2936 24.329 37.4811 24.4697C37.6686 24.6103 37.774 24.8011 37.774 25C37.774 25.1989 37.6686 25.3897 37.4811 25.5303C37.2936 25.671 37.0392 25.75 36.774 25.75H20.774C20.5088 25.75 20.2544 25.671 20.0669 25.5303C19.8793 25.3897 19.774 25.1989 19.774 25Z" fill="#67215F"/>
<path d="M35.274 11.5C35.274 12.7929 34.5892 14.0329 33.3702 14.9471C32.1512 15.8614 30.4979 16.375 28.774 16.375C27.0501 16.375 25.3968 15.8614 24.1778 14.9471C22.9588 14.0329 22.274 12.7929 22.274 11.5C22.274 10.2071 22.9588 8.96709 24.1778 8.05285C25.3968 7.13861 27.0501 6.625 28.774 6.625C30.4979 6.625 32.1512 7.13861 33.3702 8.05285C34.5892 8.96709 35.274 10.2071 35.274 11.5Z" fill="#67215F"/>
<path fill-rule="evenodd" clip-rule="evenodd" d="M28.774 13.375C29.437 13.375 30.0729 13.1775 30.5418 12.8258C31.0106 12.4742 31.274 11.9973 31.274 11.5C31.274 11.0027 31.0106 10.5258 30.5418 10.1742C30.0729 9.82254 29.437 9.625 28.774 9.625C28.1109 9.625 27.4751 9.82254 27.0062 10.1742C26.5374 10.5258 26.274 11.0027 26.274 11.5C26.274 11.9973 26.5374 12.4742 27.0062 12.8258C27.4751 13.1775 28.1109 13.375 28.774 13.375ZM28.774 16.375C30.4979 16.375 32.1512 15.8614 33.3702 14.9471C34.5892 14.0329 35.274 12.7929 35.274 11.5C35.274 10.2071 34.5892 8.96709 33.3702 8.05285C32.1512 7.13861 30.4979 6.625 28.774 6.625C27.0501 6.625 25.3968 7.13861 24.1778 8.05285C22.9588 8.96709 22.274 10.2071 22.274 11.5C22.274 12.7929 22.9588 14.0329 24.1778 14.9471C25.3968 15.8614 27.0501 16.375 28.774 16.375Z" fill="#67215F"/>
<path d="M21.774 17.125H34.774V24.625H21.774V17.125Z" fill="#67215F"/>
</g>
<path fill-rule="evenodd" clip-rule="evenodd" d="M4.71999 12.9655C3.5162 14.3205 2.8739 15.9123 2.87399 17.5405V19C2.87399 19.1989 2.76864 19.3897 2.5811 19.5303C2.39356 19.671 2.13921 19.75 1.87399 19.75C1.60878 19.75 1.35442 19.671 1.16689 19.5303C0.97935 19.3897 0.873993 19.1989 0.873993 19V17.542C0.874602 15.6167 1.63523 13.7346 3.05999 12.133L3.27599 11.89C3.34888 11.8081 3.44257 11.7377 3.55171 11.6829C3.66086 11.6281 3.78333 11.59 3.91212 11.5707C4.04092 11.5514 4.17352 11.5513 4.30235 11.5705C4.43119 11.5896 4.55373 11.6276 4.66299 11.6822C4.77225 11.7369 4.86609 11.8072 4.93914 11.889C5.01219 11.9709 5.06303 12.0627 5.08875 12.1593C5.11447 12.2559 5.11457 12.3554 5.08905 12.452C5.06353 12.5486 5.01288 12.6406 4.93999 12.7225L4.72399 12.9655H4.71999Z" fill="#67215F"/>
<path fill-rule="evenodd" clip-rule="evenodd" d="M10.36 10.5475C8.17999 10.5475 6.14599 11.3635 4.93799 12.7225L3.27399 11.8915C4.05152 11.0168 5.10489 10.2996 6.34064 9.80348C7.5764 9.30736 8.95632 9.04769 10.358 9.04749H10.798C11.0632 9.04749 11.3176 9.1265 11.5051 9.26716C11.6926 9.40781 11.798 9.59857 11.798 9.79749C11.798 9.9964 11.6926 10.1872 11.5051 10.3278C11.3176 10.4685 11.0632 10.5475 10.798 10.5475H10.358H10.36ZM16.516 12.9475C17.456 14.0065 17.958 15.2485 17.958 16.5205H19.958C19.9584 14.953 19.3397 13.4205 18.18 12.1165L17.98 11.8915C17.9091 11.8064 17.8162 11.7328 17.7068 11.6751C17.5973 11.6174 17.4735 11.5767 17.3428 11.5556C17.212 11.5344 17.0769 11.5331 16.9454 11.5518C16.814 11.5705 16.6889 11.6088 16.5775 11.6644C16.4661 11.72 16.3708 11.7918 16.2971 11.8756C16.2234 11.9593 16.1729 12.0533 16.1485 12.152C16.1241 12.2506 16.1264 12.352 16.1551 12.45C16.1839 12.548 16.2386 12.6406 16.316 12.7225L16.516 12.9475Z" fill="#67215F"/>
<path fill-rule="evenodd" clip-rule="evenodd" d="M10.896 10.5475C13.074 10.5475 15.108 11.3635 16.316 12.7225L17.98 11.8915C17.2025 11.0168 16.1491 10.2996 14.9133 9.80348C13.6776 9.30736 12.2977 9.04769 10.896 9.04749H10.456C10.3247 9.04749 10.1946 9.06689 10.0733 9.10458C9.95198 9.14227 9.84174 9.19751 9.74889 9.26716C9.65603 9.3368 9.58237 9.41948 9.53211 9.51047C9.48186 9.60147 9.45599 9.69899 9.45599 9.79749C9.45599 9.89598 9.48186 9.9935 9.53211 10.0845C9.58237 10.1755 9.65603 10.2582 9.74889 10.3278C9.84174 10.3975 9.95198 10.4527 10.0733 10.4904C10.1946 10.5281 10.3247 10.5475 10.456 10.5475H10.896Z" fill="#67215F"/>
<path fill-rule="evenodd" clip-rule="evenodd" d="M10.5 8.875C11.0909 8.875 11.6761 8.7877 12.2221 8.61809C12.768 8.44848 13.2641 8.19988 13.682 7.88649C14.0998 7.57309 14.4313 7.20103 14.6575 6.79156C14.8836 6.38208 15 5.94321 15 5.5C15 5.05679 14.8836 4.61792 14.6575 4.20844C14.4313 3.79897 14.0998 3.42691 13.682 3.11351C13.2641 2.80012 12.768 2.55152 12.2221 2.38191C11.6761 2.2123 11.0909 2.125 10.5 2.125C9.30653 2.125 8.16193 2.48058 7.31802 3.11351C6.47411 3.74645 6 4.60489 6 5.5C6 6.39511 6.47411 7.25355 7.31802 7.88649C8.16193 8.51942 9.30653 8.875 10.5 8.875ZM10.5 10.375C12.2239 10.375 13.8772 9.86139 15.0962 8.94715C16.3152 8.03291 17 6.79293 17 5.5C17 4.20707 16.3152 2.96709 15.0962 2.05285C13.8772 1.13861 12.2239 0.625 10.5 0.625C8.77609 0.625 7.12279 1.13861 5.90381 2.05285C4.68482 2.96709 4 4.20707 4 5.5C4 6.79293 4.68482 8.03291 5.90381 8.94715C7.12279 9.86139 8.77609 10.375 10.5 10.375ZM19.016 17.779C17.8118 19.1344 17.1695 20.7268 17.17 22.3555V23.9065C17.17 24.1054 17.0646 24.2962 16.8771 24.4368C16.6896 24.5775 16.4352 24.6565 16.17 24.6565C15.9048 24.6565 15.6504 24.5775 15.4629 24.4368C15.2754 24.2962 15.17 24.1054 15.17 23.9065V22.3555C15.1698 20.431 15.929 18.5495 17.352 16.948L17.618 16.648C17.7655 16.4825 17.9945 16.3677 18.2548 16.3289C18.5151 16.2901 18.7853 16.3304 19.006 16.441C19.2267 16.5516 19.3797 16.7234 19.4315 16.9186C19.4832 17.1139 19.4295 17.3165 19.282 17.482L19.016 17.779Z" fill="#67215F"/>
<path fill-rule="evenodd" clip-rule="evenodd" d="M24.84 15.25C23.7398 15.2499 22.6567 15.4536 21.6867 15.8429C20.7167 16.2323 19.89 16.7953 19.28 17.482L17.618 16.6495C18.4105 15.7577 19.4844 15.0264 20.7443 14.5206C22.0041 14.0148 23.411 13.7501 24.84 13.75H25.288C25.5532 13.75 25.8076 13.829 25.9951 13.9697C26.1826 14.1103 26.288 14.3011 26.288 14.5C26.288 14.6989 26.1826 14.8897 25.9951 15.0303C25.8076 15.171 25.5532 15.25 25.288 15.25H24.84ZM31.214 17.779C32.4189 19.1342 33.0619 20.7266 33.062 22.3555V23.9065C33.062 24.1054 33.1674 24.2962 33.3549 24.4368C33.5424 24.5775 33.7968 24.6565 34.062 24.6565C34.3272 24.6565 34.5816 24.5775 34.7691 24.4368C34.9566 24.2962 35.062 24.1054 35.062 23.9065V22.3555C35.0616 20.4308 34.3017 18.5493 32.878 16.948L32.612 16.648C32.4645 16.4825 32.2355 16.3677 31.9752 16.3289C31.7149 16.2901 31.4447 16.3304 31.224 16.441C31.0033 16.5516 30.8503 16.7234 30.7985 16.9186C30.7468 17.1139 30.8005 17.3165 30.948 17.482L31.214 17.779Z" fill="#67215F"/>
<path fill-rule="evenodd" clip-rule="evenodd" d="M25.39 15.25C26.4901 15.2499 27.5733 15.4536 28.5433 15.8429C29.5132 16.2323 30.34 16.7953 30.95 17.482L32.614 16.6495C31.8213 15.7575 30.7471 15.0261 29.4868 14.5202C28.2266 14.0144 26.8193 13.7498 25.39 13.75H24.94C24.6748 13.75 24.4204 13.829 24.2329 13.9697C24.0453 14.1103 23.94 14.3011 23.94 14.5C23.94 14.6989 24.0453 14.8897 24.2329 15.0303C24.4204 15.171 24.6748 15.25 24.94 15.25H25.39Z" fill="#67215F"/>
<path fill-rule="evenodd" clip-rule="evenodd" d="M25 13.75C25.5909 13.75 26.1761 13.6627 26.7221 13.4931C27.268 13.3235 27.7641 13.0749 28.182 12.7615C28.5998 12.4481 28.9313 12.076 29.1575 11.6666C29.3836 11.2571 29.5 10.8182 29.5 10.375C29.5 9.93179 29.3836 9.49292 29.1575 9.08344C28.9313 8.67397 28.5998 8.30191 28.182 7.98851C27.7641 7.67512 27.268 7.42652 26.7221 7.25691C26.1761 7.0873 25.5909 7 25 7C23.8065 7 22.6619 7.35558 21.818 7.98851C20.9741 8.62145 20.5 9.47989 20.5 10.375C20.5 11.2701 20.9741 12.1286 21.818 12.7615C22.6619 13.3944 23.8065 13.75 25 13.75ZM25 15.25C26.7239 15.25 28.3772 14.7364 29.5962 13.8221C30.8152 12.9079 31.5 11.6679 31.5 10.375C31.5 9.08207 30.8152 7.84209 29.5962 6.92785C28.3772 6.01361 26.7239 5.5 25 5.5C23.2761 5.5 21.6228 6.01361 20.4038 6.92785C19.1848 7.84209 18.5 9.08207 18.5 10.375C18.5 11.6679 19.1848 12.9079 20.4038 13.8221C21.6228 14.7364 23.2761 15.25 25 15.25Z" fill="#67215F"/>
</svg>
