<svg width="121" height="101" viewBox="0 0 121 101" fill="none" xmlns="http://www.w3.org/2000/svg">
<path d="M45.375 88.375H25.2083C22.4354 88.375 20.0608 87.5516 18.0845 85.9047C16.1115 84.255 15.125 82.2729 15.125 79.9583V50.5C15.125 45.2396 16.3216 40.3116 18.7147 35.7161C21.1111 31.1234 24.3479 27.1255 28.4249 23.7224C32.4986 20.322 37.2882 17.6217 42.7937 15.6213C48.2958 13.6238 54.1979 12.625 60.5 12.625C66.8021 12.625 72.7059 13.6238 78.2114 15.6213C83.7135 17.6217 88.5031 20.322 92.5801 23.7224C96.6538 27.1255 99.8889 31.1234 102.285 35.7161C104.678 40.3116 105.875 45.2396 105.875 50.5V79.9583C105.875 82.2729 104.889 84.255 102.916 85.9047C100.939 87.5516 98.5646 88.375 95.7917 88.375H75.625V54.7083H95.7917V50.5C95.7917 42.2938 92.3667 35.3318 85.5167 29.614C78.6702 23.8991 70.3312 21.0417 60.5 21.0417C50.6687 21.0417 42.3298 23.8991 35.4832 29.614C28.6333 35.3318 25.2083 42.2938 25.2083 50.5V54.7083H45.375V88.375Z" fill="#5F2782"/>
</svg>
