<svg width="29" height="22" viewBox="0 0 29 22" fill="none" xmlns="http://www.w3.org/2000/svg">
<path d="M22.8375 18.6083L16.0708 13.475C15.4667 13.8417 14.7719 14.1319 13.9865 14.3458C13.201 14.5597 12.3653 14.6667 11.4792 14.6667C9.28403 14.6667 7.42642 14.0901 5.90633 12.9369C4.38544 11.7831 3.625 10.3736 3.625 8.70833C3.625 7.04306 4.38544 5.63353 5.90633 4.47975C7.42642 3.32658 9.28403 2.75 11.4792 2.75C13.6743 2.75 15.5323 3.32658 17.0532 4.47975C18.5733 5.63353 19.3333 7.04306 19.3333 8.70833C19.3333 9.38056 19.1924 10.0146 18.9104 10.6104C18.6285 11.2062 18.2458 11.7333 17.7625 12.1917L24.5594 17.3479C24.7809 17.516 24.8917 17.7222 24.8917 17.9667C24.8917 18.2111 24.7708 18.425 24.5292 18.6083C24.3076 18.7764 24.0257 18.8604 23.6833 18.8604C23.341 18.8604 23.059 18.7764 22.8375 18.6083ZM11.4792 12.8333C12.9896 12.8333 14.2736 12.4324 15.3313 11.6307C16.3882 10.8283 16.9167 9.85417 16.9167 8.70833C16.9167 7.5625 16.3882 6.58839 15.3313 5.786C14.2736 4.98422 12.9896 4.58333 11.4792 4.58333C9.96875 4.58333 8.68469 4.98422 7.627 5.786C6.57011 6.58839 6.04167 7.5625 6.04167 8.70833C6.04167 9.85417 6.57011 10.8283 7.627 11.6307C8.68469 12.4324 9.96875 12.8333 11.4792 12.8333Z" fill="#5F2782"/>
</svg>
